<svg id="svg" xmlns="http://www.w3.org/2000/svg" xmlns:xlink="http://www.w3.org/1999/xlink" width="400" height="400" viewBox="0, 0, 400,400"><g id="svgg"><path id="path0" d="M264.943 74.821 C 250.402 75.989,217.299 78.515,191.379 80.433 C 165.460 82.351,142.097 84.201,139.463 84.545 C 135.349 85.082,134.568 84.838,133.927 82.819 C 130.516 72.072,107.786 72.596,100.999 83.577 C 98.754 87.209,98.378 87.356,91.351 87.356 C 79.422 87.356,80.460 77.097,80.460 195.001 C 80.460 286.683,80.651 297.728,82.266 299.343 C 83.873 300.950,92.662 301.148,161.864 301.132 C 249.125 301.113,247.896 301.213,263.214 292.934 L 271.839 288.272 293.103 286.674 C 317.813 284.818,317.770 284.840,316.723 274.713 C 316.364 271.236,314.238 243.822,311.998 213.793 C 302.492 86.324,301.466 74.470,299.843 73.442 C 297.889 72.204,297.162 72.233,264.943 74.821 M293.103 85.823 C 293.103 88.021,292.650 88.578,291.285 88.054 C 290.285 87.670,275.673 87.294,258.814 87.217 L 228.161 87.077 247.701 85.551 C 258.448 84.712,272.672 83.585,279.310 83.048 C 293.155 81.928,293.103 81.918,293.103 85.823 M97.701 121.477 C 97.701 147.329,98.163 150.178,103.234 155.601 C 113.299 166.366,131.515 162.808,136.708 149.063 C 137.397 147.240,137.931 137.305,137.931 126.310 C 137.931 104.290,136.783 101.149,128.736 101.149 C 120.785 101.149,119.540 104.410,119.540 125.235 C 119.540 140.863,119.277 143.678,117.816 143.678 C 116.340 143.678,116.092 140.294,116.092 120.115 L 116.092 96.552 200.575 96.552 L 285.057 96.552 285.057 165.517 L 285.057 234.483 259.278 234.483 C 226.525 234.483,229.885 230.992,229.885 265.025 L 229.885 291.954 159.770 291.954 L 89.655 291.954 89.655 195.019 C 89.655 141.705,89.871 97.869,90.134 97.605 C 90.398 97.342,92.208 97.126,94.157 97.126 L 97.701 97.126 97.701 121.477 M296.419 129.885 C 297.012 138.420,299.697 174.757,302.386 210.634 C 305.075 246.512,307.061 276.053,306.799 276.282 C 306.536 276.510,300.698 277.047,293.824 277.475 L 281.326 278.252 283.848 274.471 C 294.081 259.133,294.230 257.779,294.409 178.781 C 294.495 140.825,294.741 110.805,294.954 112.069 C 295.167 113.333,295.827 121.351,296.419 129.885 M284.076 248.932 C 282.296 268.449,264.628 286.341,242.241 291.298 L 239.080 291.998 239.080 268.508 C 239.080 253.879,239.514 244.875,240.229 244.636 C 240.861 244.425,251.077 244.301,262.930 244.360 L 284.483 244.468 284.076 248.932 " stroke="none" fill="#000000" fill-rule="evenodd"></path></g></svg>